# xmcd
#
# Track frame offsets:
#	187
#	11910
#	25640
#	38395
#	51345
#	63357
#	77060
#	88000
#	101387
#	113627
#
# Disc length: 1673
#
# Revision: 3
# Processed by: cddbd v1.5.1PL0 Copyright (c) Steve Scherf et al.
# Submitted via: EasyCD 2.21 - (C) 1996 Greg Leichner
# Normalized: r1:TDELIM( - ),TSWAP
#
DISCID=6d06870a
DTITLE=Various Artist - Country gold Volume 2
DYEAR=1900
DGENRE=
TTITLE0=Patsy Cline - Walkin' After Midnight
TTITLE1=Waylon Jennings - Love Of The Common People
TTITLE2=Vern Gosdin - When Love Takes Over Your Life
TTITLE3=Johnny Paycheck - Take This Job And Shove It
TTITLE4=Ernest Tubbs and George Jones - Half A Mind
TTITLE5=Vern Gosdin - Just Give Me What You Think Is Fair
TTITLE6=Waylon Jennings - Mental Revenge
TTITLE7=Johnny Paycheck - She's All I Got
TTITLE8=Patsy Cline - A Poor Man's Rose (Or A Rich Man's Gold)
TTITLE9=Roy Clark - Are You From Dixie, 'Cause I'm From Dixie, Too
EXTD=
EXTT0=
EXTT1=
EXTT2=
EXTT3=
EXTT4=
EXTT5=
EXTT6=
EXTT7=
EXTT8=
EXTT9=
PLAYORDER=
